<?xml version="1.0" standalone="no"?>
<!DOCTYPE svg PUBLIC "-//W3C//DTD SVG 20010904//EN"
 "http://www.w3.org/TR/2001/REC-SVG-20010904/DTD/svg10.dtd">
<svg version="1.0" xmlns="http://www.w3.org/2000/svg"
 width="204.000000pt" height="192.000000pt" viewBox="0 0 204.000000 192.000000"
 preserveAspectRatio="xMidYMid meet">

<g transform="translate(0.000000,192.000000) scale(0.100000,-0.100000)"
fill="#000000" stroke="none">
<path d="M950 1715 l-64 -65 34 -36 c19 -20 51 -49 71 -64 l35 -29 70 64 69
63 -65 66 c-35 36 -69 66 -75 66 -6 0 -40 -29 -75 -65z"/>
<path d="M760 1525 l-65 -65 68 -67 67 -68 70 70 70 69 -62 63 c-34 35 -67 63
-73 63 -6 0 -40 -29 -75 -65z"/>
<path d="M1142 1527 l-62 -63 70 -69 70 -70 67 68 68 67 -65 65 c-35 36 -69
65 -75 65 -6 0 -39 -28 -73 -63z"/>
<path d="M575 1340 l-70 -70 68 -67 67 -68 70 70 70 70 -68 68 -68 67 -69 -70z"/>
<path d="M947 1342 l-67 -68 70 -69 70 -70 67 68 68 67 -70 70 -70 70 -68 -68z"/>
<path d="M1337 1342 l-67 -68 70 -69 70 -70 67 68 68 67 -70 70 -70 70 -68
-68z"/>
<path d="M380 1155 l-64 -65 134 0 134 0 -64 65 c-35 36 -67 65 -70 65 -3 0
-35 -29 -70 -65z"/>
<path d="M1143 1155 l-68 -64 140 -1 139 0 -64 65 c-35 36 -68 65 -72 65 -4 0
-38 -29 -75 -65z"/>
<path d="M1530 1155 l-64 -65 134 0 134 0 -64 65 c-35 36 -67 65 -70 65 -3 0
-35 -29 -70 -65z"/>
<path d="M761 1146 l-63 -64 68 -65 69 -66 67 67 68 66 -62 63 c-34 35 -67 63
-73 63 -6 0 -39 -29 -74 -64z"/>
<path d="M363 780 c-71 -43 -62 -159 14 -195 42 -20 82 -13 114 21 20 21 21
27 9 34 -21 13 -25 13 -45 -10 -38 -42 -90 -7 -90 62 0 59 52 90 89 53 20 -21
60 -20 52 1 -3 9 -6 17 -6 20 0 9 -61 34 -82 34 -13 0 -37 -9 -55 -20z"/>
<path d="M1595 788 c-26 -15 -35 -28 -35 -54 0 -28 26 -50 77 -63 48 -13 60
-26 43 -46 -16 -19 -54 -19 -70 0 -14 17 -46 20 -55 6 -8 -14 32 -48 64 -54
41 -8 82 5 103 34 29 40 15 65 -56 92 -63 24 -80 49 -37 55 13 2 34 -2 46 -8
15 -8 29 -9 40 -3 15 9 14 12 -10 31 -30 24 -78 28 -110 10z"/>
<path d="M615 778 c-3 -7 -20 -55 -39 -105 l-34 -93 23 0 c15 0 26 8 30 20 5
16 15 20 52 20 36 0 46 -4 50 -20 4 -14 14 -20 33 -20 l28 0 -41 105 c-38 100
-42 105 -69 105 -16 0 -31 -6 -33 -12z m55 -105 c0 -7 -11 -13 -25 -13 -28 0
-30 4 -13 51 l12 34 12 -30 c7 -17 13 -36 14 -42z"/>
<path d="M800 685 c0 -98 1 -105 20 -105 18 0 20 7 20 76 0 41 4 73 9 70 5 -3
17 -37 27 -76 15 -59 21 -70 39 -70 18 0 26 13 47 83 l26 82 1 -82 c1 -76 3
-83 21 -83 19 0 20 7 20 106 l0 105 -37 -3 c-36 -3 -37 -4 -54 -67 -10 -35
-20 -65 -23 -68 -2 -2 -12 22 -21 54 -9 32 -18 64 -20 71 -2 6 -20 12 -40 12
l-35 0 0 -105z"/>
<path d="M1100 685 l0 -105 25 0 c22 0 25 4 25 35 0 32 2 35 31 35 32 0 69 15
81 34 14 21 8 73 -10 89 -13 12 -37 17 -85 17 l-67 0 0 -105z m126 50 c9 -23
-15 -45 -47 -45 -26 0 -29 4 -29 30 0 28 3 30 35 30 23 0 38 -6 41 -15z"/>
<path d="M1320 711 c0 -63 4 -83 20 -104 25 -32 63 -41 107 -26 43 14 53 39
53 135 0 67 -2 74 -20 74 -18 0 -20 -7 -20 -69 0 -52 -4 -74 -19 -92 -16 -21
-22 -22 -45 -11 -25 11 -26 15 -26 92 0 79 0 80 -25 80 -25 0 -25 -1 -25 -79z"/>
<path d="M310 410 l0 -110 25 0 c23 0 25 4 25 40 l0 40 45 0 c38 0 45 3 45 20
0 17 -7 20 -45 20 -43 0 -45 1 -45 30 0 29 1 30 49 30 40 0 50 3 54 20 5 19 0
20 -74 20 l-79 0 0 -110z"/>
<path d="M540 410 c0 -103 1 -110 20 -110 17 0 20 7 20 40 0 54 27 54 58 0 18
-33 28 -40 52 -40 l30 0 -26 39 -26 39 21 21 c30 30 27 75 -5 100 -20 16 -41
21 -85 21 l-59 0 0 -110z m104 64 c24 -9 19 -43 -8 -56 -35 -16 -56 -4 -56 32
0 25 4 30 24 30 13 0 31 -3 40 -6z"/>
<path d="M804 410 c-41 -109 -41 -110 -18 -110 14 0 25 8 29 20 5 16 15 20 55
20 39 0 49 -3 53 -20 3 -13 14 -20 31 -20 l26 0 -26 68 c-14 37 -33 86 -41
110 -12 35 -19 42 -41 42 -25 0 -30 -8 -68 -110z m80 26 c3 -13 9 -31 12 -40
5 -13 -1 -16 -25 -16 -34 0 -36 3 -20 49 13 37 25 40 33 7z"/>
<path d="M1040 411 l0 -111 25 0 c23 0 24 3 27 70 l3 71 41 -68 c27 -46 47
-69 62 -71 22 -3 22 -1 22 107 0 104 -1 111 -20 111 -18 0 -20 -7 -20 -65 0
-36 -3 -65 -7 -65 -5 0 -24 29 -43 63 -28 50 -41 63 -63 65 l-27 3 0 -110z"/>
<path d="M1344 502 c-45 -36 -57 -98 -29 -152 19 -37 43 -50 95 -50 30 0 47 6
65 25 14 13 25 29 25 35 0 15 -47 12 -53 -4 -9 -23 -45 -25 -72 -4 -49 38 -24
128 36 128 17 0 32 -6 35 -15 7 -17 40 -20 49 -5 3 5 -5 21 -19 35 -31 31 -99
34 -132 7z"/>
<path d="M1570 410 l0 -110 85 0 c78 0 85 2 85 20 0 18 -7 20 -60 20 -57 0
-60 1 -60 25 0 23 3 25 50 25 43 0 50 3 50 20 0 17 -7 20 -50 20 -47 0 -50 2
-50 25 0 24 3 25 55 25 48 0 55 2 55 20 0 18 -7 20 -80 20 l-80 0 0 -110z"/>
<path d="M800 155 c0 -27 3 -46 6 -42 3 3 6 22 6 42 0 20 -3 39 -6 42 -3 4 -6
-15 -6 -42z"/>
<path d="M837 183 c-14 -17 -13 -21 9 -48 13 -16 24 -26 24 -21 0 5 -8 18 -17
28 -14 16 -15 23 -5 39 15 24 10 25 -11 2z"/>
<path d="M981 153 l2 -48 6 40 6 40 23 -37 c13 -21 28 -38 33 -38 5 0 9 20 9
45 0 26 -5 45 -11 45 -7 0 -10 -12 -7 -30 3 -16 2 -30 -2 -30 -3 0 -14 14 -23
30 -26 43 -37 37 -36 -17z"/>
<path d="M1091 181 c7 -14 15 -36 20 -50 l7 -26 1 25 c1 14 8 37 17 50 l16 25
-20 -22 -20 -23 -16 23 -17 22 12 -24z"/>
<path d="M1195 190 c-3 -5 1 -10 9 -10 9 0 16 5 16 10 0 6 -4 10 -9 10 -6 0
-13 -4 -16 -10z"/>
<path d="M1181 163 c0 -6 -4 -20 -7 -30 -5 -14 -4 -15 5 -7 7 7 11 20 8 30 -3
11 -5 14 -6 7z"/>
<path d="M1221 154 c-1 -12 6 -28 16 -35 15 -13 15 -12 6 6 -6 11 -13 27 -16
35 -4 10 -6 8 -6 -6z"/>
<path d="M900 118 c0 -4 14 -8 30 -8 17 0 30 2 30 4 0 2 -13 6 -30 8 -16 3
-30 1 -30 -4z"/>
</g>
</svg>
