<?xml version="1.0" standalone="no"?>
<!DOCTYPE svg PUBLIC "-//W3C//DTD SVG 20010904//EN"
 "http://www.w3.org/TR/2001/REC-SVG-20010904/DTD/svg10.dtd">
<svg version="1.0" xmlns="http://www.w3.org/2000/svg"
 width="204.000000pt" height="192.000000pt" viewBox="0 0 204.000000 192.000000"
 preserveAspectRatio="xMidYMid meet">

<g transform="translate(0.000000,192.000000) scale(0.100000,-0.100000)"
fill="#000000" stroke="none">
<path d="M808 1043 c-2 -61 -6 -78 -18 -78 -8 0 -16 10 -18 23 -3 16 -8 22
-19 18 -8 -3 -19 -6 -24 -6 -18 0 -8 -42 16 -65 29 -30 68 -32 95 -5 17 17 20
33 20 105 0 84 0 85 -25 85 -23 0 -24 -3 -27 -77z"/>
<path d="M890 1015 l0 -105 25 0 c23 0 25 4 25 40 0 33 3 40 20 40 17 0 20 -7
20 -40 0 -36 3 -40 25 -40 l25 0 0 105 0 105 -25 0 c-22 0 -25 -4 -25 -40 0
-33 -3 -40 -20 -40 -17 0 -20 7 -20 40 0 36 -2 40 -25 40 l-25 0 0 -105z"/>
<path d="M1060 1051 c0 -84 11 -117 44 -132 66 -30 109 26 104 134 -3 59 -4
62 -28 62 -24 0 -25 -3 -28 -65 -3 -84 -7 -96 -27 -80 -11 9 -15 33 -15 81 0
67 -1 69 -25 69 -24 0 -25 -2 -25 -69z"/>
<path d="M1234 1107 c-3 -8 -4 -54 -2 -103 l3 -89 56 0 c32 0 63 6 73 14 17
14 22 66 7 75 -5 3 -7 23 -4 45 4 32 2 41 -18 55 -29 20 -107 22 -115 3z m89
-52 c1 -5 -6 -11 -15 -13 -11 -2 -18 3 -18 13 0 17 30 18 33 0z m5 -78 c2 -12
-3 -17 -17 -17 -15 0 -21 6 -21 21 0 25 33 22 38 -4z"/>
<path d="M395 1070 c-3 -5 -1 -10 4 -10 6 0 11 5 11 10 0 6 -2 10 -4 10 -3 0
-8 -4 -11 -10z"/>
<path d="M370 1039 c0 -5 5 -7 10 -4 6 3 10 8 10 11 0 2 -4 4 -10 4 -5 0 -10
-5 -10 -11z"/>
<path d="M295 1010 c-3 -6 -3 -20 0 -31 6 -17 9 -19 16 -8 13 20 11 37 -2 19
-9 -12 -10 -11 -6 8 5 23 2 28 -8 12z"/>
<path d="M370 991 c0 -5 6 -11 13 -14 9 -3 9 -9 0 -25 -8 -13 -9 -23 -3 -27 6
-3 10 1 10 9 0 9 3 16 8 16 4 0 12 11 19 25 6 14 7 25 3 25 -5 0 -11 -6 -14
-12 -5 -10 -7 -10 -12 0 -7 14 -24 16 -24 3z"/>
<path d="M480 980 c0 -5 5 -10 10 -10 6 0 10 5 10 10 0 6 -4 10 -10 10 -5 0
-10 -4 -10 -10z"/>
<path d="M316 955 c-9 -26 -7 -32 5 -12 6 10 9 21 6 23 -2 3 -7 -2 -11 -11z"/>
<path d="M355 960 c3 -5 8 -10 11 -10 2 0 4 5 4 10 0 6 -5 10 -11 10 -5 0 -7
-4 -4 -10z"/>
<path d="M341 943 c-1 -6 -4 -20 -7 -30 -5 -17 -5 -17 6 0 6 10 9 23 6 30 -3
9 -5 9 -5 0z"/>
<path d="M420 940 c0 -5 5 -10 10 -10 6 0 10 5 10 10 0 6 -4 10 -10 10 -5 0
-10 -4 -10 -10z"/>
<path d="M450 920 c0 -5 5 -10 11 -10 5 0 7 5 4 10 -3 6 -8 10 -11 10 -2 0 -4
-4 -4 -10z"/>
<path d="M360 910 c0 -5 5 -10 11 -10 5 0 7 5 4 10 -3 6 -8 10 -11 10 -2 0 -4
-4 -4 -10z"/>
<path d="M400 910 c0 -5 5 -10 10 -10 6 0 10 5 10 10 0 6 -4 10 -10 10 -5 0
-10 -4 -10 -10z"/>
<path d="M430 890 c0 -5 5 -10 11 -10 5 0 7 5 4 10 -3 6 -8 10 -11 10 -2 0 -4
-4 -4 -10z"/>
<path d="M480 889 c0 -5 5 -7 10 -4 6 3 10 8 10 11 0 2 -4 4 -10 4 -5 0 -10
-5 -10 -11z"/>
<path d="M386 874 c-8 -21 -8 -24 5 -24 5 0 8 4 5 9 -4 5 -1 11 6 13 8 3 9 6
1 11 -6 4 -14 0 -17 -9z"/>
<path d="M420 860 c0 -5 5 -10 11 -10 5 0 7 5 4 10 -3 6 -8 10 -11 10 -2 0 -4
-4 -4 -10z"/>
<path d="M465 860 c3 -5 8 -10 11 -10 2 0 4 5 4 10 0 6 -5 10 -11 10 -5 0 -7
-4 -4 -10z"/>
<path d="M495 850 c-3 -5 -1 -10 4 -10 6 0 11 5 11 10 0 6 -2 10 -4 10 -3 0
-8 -4 -11 -10z"/>
<path d="M450 840 c0 -5 5 -10 11 -10 5 0 7 5 4 10 -3 6 -8 10 -11 10 -2 0 -4
-4 -4 -10z"/>
<path d="M1175 836 c-11 -8 -16 -20 -12 -30 9 -22 36 -31 50 -17 8 8 5 11 -12
11 -14 0 -21 5 -18 13 2 6 10 11 16 10 6 -2 11 1 11 6 0 17 -17 21 -35 7z"/>
<path d="M375 830 c3 -5 8 -10 11 -10 2 0 4 5 4 10 0 6 -5 10 -11 10 -5 0 -7
-4 -4 -10z"/>
<path d="M824 812 c-10 -27 -10 -28 23 -28 18 0 33 1 33 3 0 1 -5 14 -12 28
-15 33 -31 32 -44 -3z"/>
<path d="M920 810 c0 -16 5 -30 10 -30 6 0 10 6 10 14 0 8 8 17 18 19 14 4 14
5 -3 7 l-20 1 20 9 c18 8 17 9 -7 9 -25 1 -28 -3 -28 -29z"/>
<path d="M1010 810 c0 -31 20 -43 20 -12 1 15 2 15 15 -2 14 -19 15 -18 15 12
0 27 -4 32 -25 32 -21 0 -25 -5 -25 -30z"/>
<path d="M1112 810 c0 -19 2 -27 5 -17 2 9 2 25 0 35 -3 9 -5 1 -5 -18z"/>
<path d="M1270 814 c-6 -14 -10 -27 -10 -28 0 -2 13 -3 30 -2 16 1 30 2 30 3
0 14 -22 53 -30 53 -6 0 -15 -12 -20 -26z"/>
<path d="M967 679 c7 -7 15 -10 18 -7 3 3 -2 9 -12 12 -14 6 -15 5 -6 -5z"/>
<path d="M760 670 c-9 -6 -10 -10 -3 -10 6 0 15 5 18 10 8 12 4 12 -15 0z"/>
</g>
</svg>
