<?xml version="1.0" standalone="no"?>
<!DOCTYPE svg PUBLIC "-//W3C//DTD SVG 20010904//EN"
 "http://www.w3.org/TR/2001/REC-SVG-20010904/DTD/svg10.dtd">
<svg version="1.0" xmlns="http://www.w3.org/2000/svg"
 width="80.000000pt" height="80.000000pt" viewBox="0 0 80.000000 80.000000"
 preserveAspectRatio="xMidYMid meet">

<g transform="translate(0.000000,80.000000) scale(0.100000,-0.100000)"
fill="#000000" stroke="none">
<path d="M354 754 c5 -14 4 -15 -8 -4 -20 16 -120 -15 -112 -36 3 -8 0 -11 -8
-8 -8 3 -17 1 -21 -5 -3 -6 1 -14 9 -17 19 -7 76 26 76 44 0 10 4 11 13 5 15
-12 63 0 60 15 -4 16 14 16 19 0 5 -15 48 -18 48 -3 0 21 -13 25 -27 7 -14
-16 -14 -16 -9 1 4 13 0 17 -20 17 -20 0 -25 -4 -20 -16z m-24 -8 c0 -3 -4 -8
-10 -11 -5 -3 -10 -1 -10 4 0 6 5 11 10 11 6 0 10 -2 10 -4z m-65 -26 c3 -5 1
-10 -4 -10 -6 0 -11 5 -11 10 0 6 2 10 4 10 3 0 8 -4 11 -10z"/>
<path d="M487 753 c-14 -13 -6 -33 12 -33 11 0 23 -4 26 -10 3 -5 11 -10 16
-10 6 0 7 5 3 12 -4 7 -3 8 4 4 7 -4 12 -14 12 -22 0 -8 4 -13 9 -10 5 3 12
-1 15 -10 4 -11 14 -14 27 -11 14 4 18 2 11 -6 -6 -8 -1 -24 14 -45 12 -18 25
-28 29 -22 3 5 1 10 -5 10 -6 0 -8 5 -4 11 5 8 10 6 16 -5 6 -11 6 -22 -2 -32
-10 -11 -9 -14 8 -14 16 0 19 5 15 23 -8 31 -23 48 -36 40 -6 -4 -8 0 -4 10 7
19 -76 97 -104 97 -10 0 -21 5 -24 10 -5 8 -11 7 -21 -1 -12 -10 -13 -9 -8 5
6 17 2 21 -9 9z m123 -73 c0 -5 -5 -10 -11 -10 -5 0 -7 5 -4 10 3 6 8 10 11
10 2 0 4 -4 4 -10z"/>
<path d="M373 694 c-9 -23 -52 -37 -70 -23 -18 16 -66 -8 -58 -29 8 -20 -23
-52 -51 -52 -26 0 -42 -34 -25 -54 15 -18 -3 -66 -24 -66 -23 0 -20 -56 4 -63
23 -6 33 -53 15 -68 -19 -15 12 -62 36 -54 21 7 55 -29 47 -49 -4 -9 3 -22 16
-31 18 -13 23 -13 35 -1 18 17 72 2 72 -20 0 -9 11 -14 30 -14 19 0 30 5 30
14 0 22 54 37 72 20 12 -12 17 -12 35 1 13 9 20 22 16 31 -8 21 26 56 49 48
24 -7 47 38 29 59 -15 19 2 67 24 67 20 0 20 49 -1 57 -23 9 -36 50 -22 73 14
22 -4 50 -32 50 -20 0 -50 31 -50 52 0 27 -29 44 -50 30 -23 -14 -64 -1 -73
22 -4 9 -16 16 -27 16 -11 0 -23 -7 -27 -16z m104 -83 c80 -37 126 -134 103
-220 -44 -165 -276 -189 -350 -36 -46 96 -10 203 84 250 59 30 106 31 163 6z"/>
<path d="M312 580 c-34 -21 -72 -74 -72 -100 0 -8 9 3 19 25 21 47 38 63 88
81 23 8 30 13 18 14 -11 0 -35 -9 -53 -20z"/>
<path d="M428 593 c7 -3 16 -2 19 1 4 3 -2 6 -13 5 -11 0 -14 -3 -6 -6z"/>
<path d="M461 588 c2 -2 22 -19 43 -38 27 -24 35 -29 28 -14 -11 20 -53 54
-68 54 -4 0 -5 -1 -3 -2z"/>
<path d="M380 529 c0 -5 -6 -7 -12 -3 -10 6 -10 4 0 -8 17 -21 6 -47 -19 -41
-21 6 -26 23 -7 23 6 0 8 3 4 7 -4 5 -14 -1 -22 -11 -8 -11 -14 -14 -14 -7 0
7 -16 1 -40 -16 -37 -26 -40 -31 -35 -63 7 -43 32 -78 75 -107 33 -23 97 -32
85 -13 -3 6 -1 10 4 10 6 0 11 -5 11 -11 0 -8 11 -9 32 -5 74 15 118 72 118
151 0 28 -5 57 -10 65 -8 11 -9 8 -4 -12 5 -23 3 -26 -15 -21 -12 3 -24 9 -27
14 -3 5 -16 9 -29 9 -13 0 -32 11 -43 25 -20 25 -52 34 -52 14z m52 -38 c2 -8
-8 -14 -26 -16 -26 -4 -27 -2 -13 13 8 9 12 24 9 32 -4 13 -3 13 11 0 9 -8 17
-21 19 -29z m68 -102 l0 -57 -50 -4 c-28 -1 -73 -1 -100 0 l-50 4 0 53 c0 62
-1 62 128 61 l72 0 0 -57z"/>
<path d="M360 390 c-12 -8 -10 -10 8 -10 13 0 20 4 17 10 -7 12 -6 12 -25 0z"/>
<path d="M428 383 c6 -2 18 -2 25 0 6 3 1 5 -13 5 -14 0 -19 -2 -12 -5z"/>
<path d="M143 646 c-6 -8 -9 -17 -6 -20 4 -3 2 -6 -4 -6 -17 0 -32 -44 -19
-56 9 -8 20 2 43 37 17 26 28 50 25 53 -9 10 -26 6 -39 -8z"/>
<path d="M95 340 c-9 -15 14 -40 31 -33 10 4 11 10 3 24 -11 21 -24 24 -34 9z"/>
<path d="M655 313 c-3 -15 -12 -31 -18 -35 -8 -5 -7 -11 2 -22 14 -16 3 -22
-14 -8 -6 4 -9 6 -8 4 4 -8 -59 -62 -72 -62 -8 0 -15 -4 -15 -8 0 -4 -10 -8
-21 -9 -31 -3 -35 -11 -14 -31 17 -16 18 -16 11 2 -5 16 -4 17 8 7 16 -13 56
1 56 19 0 6 6 10 13 10 18 0 83 70 92 99 5 18 4 22 -6 17 -8 -4 -6 -1 4 7 15
12 15 16 3 26 -11 9 -15 6 -21 -16z m-95 -137 c0 -2 -7 -9 -15 -16 -13 -11
-14 -10 -9 4 5 14 24 23 24 12z"/>
<path d="M141 281 c-19 -12 -2 -39 59 -94 44 -40 54 -45 70 -35 10 7 16 16 13
20 -2 5 -11 4 -19 -3 -11 -9 -14 -8 -14 2 0 16 -72 89 -88 89 -6 0 -9 7 -6 15
7 17 4 18 -15 6z m89 -91 c8 -5 12 -11 10 -14 -3 -2 -14 2 -24 10 -22 15 -10
19 14 4z"/>
<path d="M300 150 c0 -5 -8 -7 -17 -3 -12 4 -15 3 -8 -4 6 -6 22 -13 37 -17
21 -5 30 -2 37 12 9 17 6 19 -19 20 -17 0 -30 -3 -30 -8z"/>
<path d="M430 152 c0 -5 -11 -8 -24 -7 -14 2 -27 -3 -30 -11 -6 -14 -2 -16 49
-18 23 -1 30 3 30 18 0 11 -6 21 -12 24 -7 2 -13 -1 -13 -6z"/>
<path d="M69 126 c8 -10 9 -16 1 -21 -5 -3 -10 -15 -10 -26 0 -14 14 -26 48
-40 44 -20 61 -21 292 -17 191 4 253 8 281 20 35 15 57 52 38 64 -6 3 -5 12 3
22 12 14 8 15 -31 8 -52 -8 -81 -22 -81 -39 0 -9 -51 -12 -212 -10 -179 1
-213 4 -220 17 -9 15 -67 36 -102 36 -15 0 -16 -3 -7 -14z m76 -34 c-3 -3 -11
0 -18 7 -9 10 -8 11 6 5 10 -3 15 -9 12 -12z m525 14 c0 -2 -7 -7 -16 -10 -8
-3 -12 -2 -9 4 6 10 25 14 25 6z m-482 -48 c9 -9 12 -9 12 0 0 13 68 14 76 0
5 -7 -60 -13 -96 -8 -21 3 -38 20 -19 20 8 0 20 -5 27 -12z m132 2 c0 -5 -7
-10 -15 -10 -8 0 -15 5 -15 10 0 6 7 10 15 10 8 0 15 -4 15 -10z m90 0 c0 -5
-7 -10 -15 -10 -8 0 -15 5 -15 10 0 6 7 10 15 10 8 0 15 -4 15 -10z m105 1 c2
-4 -8 -7 -23 -7 -15 1 -35 -2 -44 -7 -12 -5 -18 -4 -18 5 0 15 76 22 85 9z
m131 0 c-7 -11 -116 -11 -116 0 0 5 27 9 61 9 33 0 58 -4 55 -9z"/>
</g>
</svg>
